<svg width="337" height="337" viewBox="0 0 337 337" fill="none" xmlns="http://www.w3.org/2000/svg">
<g id="Experiment" clip-path="url(#clip0)">
<rect width="337" height="337" fill="#1E3163"/>
<g id="Half Hidden">
<rect id="Bg" width="337" height="337" fill="#1E3163"/>
<path id="Subtract" fill-rule="evenodd" clip-rule="evenodd" d="M93.0659 220.512C94.9527 226.773 100.722 231.058 107.264 231.058H137.254C138.5 231.058 139.726 230.902 140.907 230.602C142.08 230.9 143.309 231.058 144.575 231.058H172.666C180.856 231.058 187.495 224.423 187.495 216.237V158.479C188.189 158.316 189.067 158.153 190.157 158.015C189.919 160.745 189.803 163.523 189.803 166.344C189.803 175.638 191.058 184.462 193.791 192.658C196.473 200.698 200.396 207.952 205.733 214.146C205.784 214.205 205.835 214.264 205.886 214.322C211.423 220.548 218.119 225.315 225.817 228.563L225.924 228.608C233.811 231.864 242.36 233.335 251.324 233.335C260.26 233.335 268.776 231.873 276.589 228.586C284.394 225.355 291.163 220.575 296.649 214.236C300.719 209.641 303.979 204.451 306.493 198.777L312.751 217.542H307.448C299.258 217.542 292.619 224.177 292.619 232.363V254.179C292.619 262.364 299.258 269 307.448 269H324.91C335.325 269 345.703 266.821 353.873 260.283C361.513 254.267 366.436 245.724 369.547 236.26L369.559 236.221L378.577 209.183C380.551 213.487 383.281 217.471 386.837 221.026C395.756 229.941 407.702 233.335 420.289 233.335C430.03 233.335 439.334 231.211 447.401 226.098C447.473 226.052 447.544 226.006 447.615 225.96C448.275 225.525 448.916 225.075 449.539 224.61C455.42 228.997 462.342 231.058 469.639 231.058H485.203C486.839 231.058 488.413 230.794 489.885 230.304C491.357 230.794 492.931 231.058 494.567 231.058H522.659C530.848 231.058 537.487 224.423 537.487 216.237V152.494C537.737 152.435 537.985 152.369 538.231 152.296C538.639 152.176 539.057 152.086 539.491 152.028C539.624 153.052 539.717 154.392 539.717 156.1V216.237C539.717 224.423 546.356 231.058 554.546 231.058H582.637C586.843 231.058 590.64 229.308 593.338 226.497C599.631 231.598 607.399 233.145 614.468 233.145C622.27 233.145 631.16 231.255 637.722 224.384C643.412 218.433 646 210.971 646 203.148V199.353C646 191.634 643.47 184.176 637.71 178.292C631.204 171.353 622.348 169.356 614.468 169.356C608.839 169.356 602.824 170.372 597.466 173.341V153.823C597.466 139.378 594.469 125.956 586.421 115.574C577.87 104.366 565.352 99.543 551.509 99.543C544.193 99.543 536.966 100.826 530.535 104.081C528.253 102.648 525.553 101.82 522.659 101.82H494.567C486.378 101.82 479.739 108.455 479.739 116.64V117.292C478.324 115.61 476.759 114.011 475.038 112.506C464.169 103 449.393 99.543 433.386 99.543C422.451 99.543 412.158 101.148 403.417 105.351C400.764 103.096 397.368 101.82 393.81 101.82H367.616C361.139 101.82 355.412 106.021 353.47 112.197L345.124 138.737L336.779 112.197C334.837 106.021 329.109 101.82 322.632 101.82H294.731C290.173 101.82 285.882 103.913 283.078 107.475C281.005 106.285 278.841 105.224 276.59 104.292C268.776 101.005 260.26 99.543 251.324 99.543C242.36 99.543 233.811 101.014 225.924 104.27L225.817 104.315C222.626 105.661 219.607 107.269 216.772 109.133C214.195 104.756 209.432 101.82 203.984 101.82H199.049C193.651 101.82 188.233 102.673 183.148 104.834C182.813 104.967 182.48 105.105 182.15 105.247C179.579 103.107 176.273 101.82 172.666 101.82H144.575C136.385 101.82 129.746 108.455 129.746 116.64V145.242L108.269 79.2373C106.283 73.1326 100.59 69 94.1678 69H58.4842C52.0827 69 46.4039 73.1058 44.4005 79.1826L0.745001 211.599C-0.743926 216.115 0.0256281 221.071 2.81406 224.924C5.6025 228.777 10.0712 231.058 14.8287 231.058H44.0589C50.6013 231.058 56.3706 226.773 58.2574 220.512L64.5694 199.567H86.7539L93.0659 220.512ZM107.264 216.237L97.774 184.746H53.5491L44.0588 216.237H14.8286L58.4841 83.821H94.1677L137.254 216.237H107.264ZM75.9463 110.001H74.9972L60.3821 160.273H90.7511L75.9463 110.001ZM144.575 216.237V116.64H172.666V138.267H173.615C174.121 135.485 175.007 132.829 176.272 130.3C177.538 127.644 179.183 125.304 181.207 123.28C183.358 121.257 185.889 119.676 188.799 118.538C191.71 117.273 195.126 116.64 199.049 116.64H203.984V142.82H196.961C188.736 142.82 182.599 143.895 178.55 146.045C174.627 148.195 172.666 152.179 172.666 157.997V216.237H144.575ZM231.584 214.909C237.405 217.312 243.985 218.514 251.324 218.514C258.664 218.514 265.18 217.312 270.874 214.909C276.695 212.506 281.567 209.028 285.489 204.475C289.539 199.922 292.639 194.421 294.79 187.971C296.941 181.521 298.017 174.312 298.017 166.344C298.017 158.376 296.941 151.167 294.79 144.717C292.639 138.267 289.539 132.829 285.489 128.402C281.567 123.849 276.695 120.371 270.874 117.968C265.18 115.565 258.664 114.364 251.324 114.364C243.985 114.364 237.405 115.565 231.584 117.968C225.89 120.371 221.019 123.849 216.969 128.402C213.047 132.829 210.01 138.267 207.859 144.717C205.708 151.167 204.632 158.376 204.632 166.344C204.632 174.312 205.708 181.521 207.859 187.971C210.01 194.421 213.047 199.922 216.969 204.475C221.019 209.028 225.89 212.506 231.584 214.909ZM264.231 191.196C261.194 194.611 256.892 196.318 251.324 196.318C245.757 196.318 241.454 194.611 238.418 191.196C235.381 187.781 233.862 182.912 233.862 176.588V156.29C233.862 149.966 235.381 145.097 238.418 141.682C241.454 138.267 245.757 136.56 251.324 136.56C256.892 136.56 261.194 138.267 264.231 141.682C267.268 145.097 268.786 149.966 268.786 156.29V176.588C268.786 182.912 267.268 187.781 264.231 191.196ZM367.616 116.64H393.81L355.469 231.604C352.938 239.319 349.332 245.01 344.65 248.678C340.094 252.345 333.514 254.179 324.91 254.179H307.448V232.363H326.239L329.655 221.36L294.731 116.64H322.632L337.247 163.119L344.46 191.955H345.599L353.001 163.119L367.616 116.64ZM456.922 211.495C460.338 214.656 464.577 216.237 469.639 216.237H485.203V194.421H475.902V150.788C475.902 138.9 472.359 129.857 465.273 123.66C458.187 117.463 447.558 114.364 433.386 114.364C422.883 114.364 414.532 116.071 408.331 119.486C402.257 122.774 397.196 127.391 393.147 133.335L409.85 148.132C412.001 145.097 414.721 142.378 418.011 139.975C421.301 137.572 425.73 136.37 431.298 136.37C437.245 136.37 441.484 137.825 444.015 140.733C446.546 143.516 447.811 147.31 447.811 152.116V158.376H432.057C418.897 158.376 408.458 160.969 400.739 166.154C393.147 171.213 389.351 178.991 389.351 189.489C389.351 198.215 392.008 205.234 397.322 210.546C402.637 215.858 410.293 218.514 420.289 218.514C427.881 218.514 434.271 216.87 439.46 213.581C444.648 210.167 448.001 205.234 449.519 198.784H450.658C451.544 204.096 453.632 208.333 456.922 211.495ZM442.686 195.939C439.396 197.962 435.41 198.974 430.728 198.974C426.553 198.974 423.326 198.152 421.048 196.508C418.771 194.737 417.632 192.018 417.632 188.35V185.505C417.632 178.043 423.136 174.312 434.145 174.312H447.811V186.074C447.811 190.627 446.103 193.915 442.686 195.939ZM494.567 216.237V116.64H522.658V133.525H523.797C525.569 128.339 528.669 123.849 533.098 120.055C537.527 116.261 543.664 114.364 551.509 114.364C561.759 114.364 569.477 117.779 574.665 124.608C579.98 131.438 582.637 141.176 582.637 153.823V216.237H554.546V156.1C554.546 149.65 553.534 144.907 551.509 141.872C549.484 138.71 545.878 137.129 540.69 137.129C538.412 137.129 536.198 137.445 534.047 138.078C531.896 138.583 529.934 139.469 528.163 140.733C526.518 141.998 525.189 143.579 524.177 145.476C523.165 147.247 522.658 149.334 522.658 151.737V216.237H494.567ZM601.751 214.151C604.535 216.933 608.774 218.324 614.468 218.324C620.163 218.324 624.338 216.933 626.996 214.151C629.779 211.242 631.171 207.574 631.171 203.148V199.353C631.171 194.927 629.779 191.322 626.996 188.54C624.338 185.631 620.163 184.177 614.468 184.177C608.774 184.177 604.535 185.631 601.751 188.54C599.094 191.322 597.765 194.927 597.765 199.353V203.148C597.765 207.574 599.094 211.242 601.751 214.151Z"/>
</g>
</g>
<defs>
<clipPath id="clip0">
<rect width="337" height="337" fill="white"/>
</clipPath>
</defs>
</svg>
